<?xml version="1.0" encoding="utf-8"?>
<!-- Generator: Adobe Illustrator 22.0.1, SVG Export Plug-In . SVG Version: 6.00 Build 0)  -->
<svg version="1.1" id="Layer_1" xmlns="http://www.w3.org/2000/svg" xmlns:xlink="http://www.w3.org/1999/xlink" x="0px" y="0px"
	 viewBox="-25 100 650 600" style="enable-background:new 0 0 612 792;" xml:space="preserve">
<style type="text/css">
	.st0{fill:#D44242;}
</style>
<g>
	<g>
		<path class="st0" d="M270.5,298.3c-4.2,2.7-8.5,5.3-12.2,8.6c-14.1,12.2-20.3,27.7-19.1,46.3c1.1,17.5,10,30.4,23.3,40.8
			c8.3,6.4,17.5,11.3,26.7,16.2c10.6,5.6,21.5,10.6,31.7,16.9c5.4,3.3,10.4,7.1,14.2,12.3c11.2,15,4.4,35.5-13.9,41.2
			c-10.9,3.4-22.1,3.6-33.3,2c-11.9-1.7-23.2-5.2-33.8-11c-2.7-1.5-5.3-3.2-7.6-5.2c-0.7-0.6-1.3-0.6-2.1-0.3
			c-5.8,2.4-5.8,2.4-5.8,8.6c0,7.7,0,15.5,0,23.2c0,1.6-0.5,2.1-2.1,2c-5.6-0.1-11.3-0.1-16.9,0c-8.7,0.1-16.6-6.4-18.6-14.9
			c-0.3-1.2-0.4-2.4-0.4-3.7c0-54.7,0-109.4,0-164.1c0-8.7,6.4-16.6,15-18.5c1.2-0.3,2.4-0.4,3.7-0.4
			C236.4,298.3,253.5,298.3,270.5,298.3z"/>
		<path class="st0" d="M350.9,499.9c10.7-7.6,18.1-17,21.3-29.3c3.5-13.5,3.5-27-2.6-39.9c-4.9-10.3-12.5-18.3-21.5-25.2
			c-9-6.9-18.9-12.2-29-17.3c-9.9-5.1-20.1-9.7-29.5-15.7c-5.2-3.4-10.2-7.1-13.2-12.7c-5.4-9.8-5.3-25.3,8.4-33.8
			c5.9-3.7,12.4-5.5,19.3-6.3c14-1.5,27.7-0.4,41.1,4.3c4.4,1.6,8.6,3.6,12.5,6.2c1.1,0.7,1.9,0.7,3.2,0.2c4.2-1.4,5.2-4,5-8.3
			c-0.4-7.4-0.1-14.8-0.1-22.2c0-1.3,0.3-1.7,1.6-1.7c6,0.1,12-0.2,17.9,0.1c5.5,0.3,9.9,3,13.3,7.4c2.9,3.8,4,8,4,12.8
			c-0.1,54.1-0.1,108.3,0,162.4c0,8.7-6.4,16.6-14.9,18.6c-1.2,0.3-2.4,0.4-3.7,0.4c-10.4,0-20.9,0-31.3,0
			C352.1,499.9,351.7,499.9,350.9,499.9z"/>
	</g>
</g>
</svg>
